<?xml version="1.0" encoding="utf-8"?>
<!-- Generator: Adobe Illustrator 16.0.3, SVG Export Plug-In . SVG Version: 6.00 Build 0)  -->
<!DOCTYPE svg PUBLIC "-//W3C//DTD SVG 1.1//EN" "http://www.w3.org/Graphics/SVG/1.1/DTD/svg11.dtd">
<svg version="1.1" id="レイヤー_1" xmlns="http://www.w3.org/2000/svg" xmlns:xlink="http://www.w3.org/1999/xlink" x="0px"
	 y="0px" width="500px" height="500px" viewBox="0 0 500 500" enable-background="new 0 0 500 500" xml:space="preserve">
<path fill="#E60012" d="M224.494,79.059c-20.591-10.958-44.52-16.513-71.119-16.513c-26.242,0-50.085,5.563-70.872,16.537
	c-20.642,10.903-37.186,25.832-49.166,44.373c-11.926,18.451-17.724,38.806-17.724,62.213c0,22.033,5.317,41.396,16.256,59.182
	c10.937,17.815,25.886,32.258,44.435,42.929c16.361,9.409,34.645,14.707,54.366,15.745l28.69,1.506
	c1.639,0.089,2.533,1.957,1.566,3.286L73.171,429.502c-1.652,2.276-0.018,5.478,2.798,5.478h72.404c1.141,0,2.211-0.569,2.858-1.517
	l110.332-162.568c19.632-28.78,29.582-57.453,29.582-85.226c0-23.401-5.796-43.745-17.712-62.205
	C261.42,104.89,244.955,89.952,224.494,79.059 M158.959,257.226c-42.1,3.358-77.112-31.66-73.761-73.753
	c2.64-33.129,29.477-59.965,62.61-62.609c42.093-3.351,77.106,31.661,73.755,73.764C218.922,227.755,192.083,254.59,158.959,257.226
	"/>
<path fill="#E60012" d="M478.067,143.983h-64.381c-1.927,0-3.486,1.562-3.486,3.489v109.23c0,1.921-1.568,3.487-3.494,3.487H298.72
	c-1.923,0-3.491-1.566-3.491-3.487v-109.23c0-1.927-1.56-3.489-3.486-3.489h-64.379c-1.926,0-3.489,1.562-3.489,3.489v129.753
	v156.479c0,1.934,1.563,3.486,3.489,3.486h87.386c21.25,0,26.369-15.06,26.369-15.06l0.217-0.672
	c0.695-2.027-0.079-3.561-0.601-4.286c-0.909-1.269-2.385-2.049-3.866-2.049c-0.849,0-1.669,0.236-2.367,0.671
	c-5.428,3.705-11.765,6.899-18.819,6.899c-20.235,0-36.089-16.736-36.089-38.104c0-20.08,13.587-33.294,30.777-50.022
	c11.492-11.173,24.51-23.832,37.371-41.659c1.846-2.483,3.793-3.006,5.102-3.006c1.343,0,3.352,0.557,5.221,3.195
	c12.735,17.773,25.7,30.419,37.138,41.578c17.122,16.688,30.643,29.861,30.643,49.914c0,21.722-15.515,38.104-36.08,38.104
	c-7.058,0-13.395-3.194-18.814-6.899c-0.695-0.435-1.519-0.671-2.375-0.671c-1.481,0-2.957,0.78-3.862,2.049
	c-0.52,0.726-1.292,2.259-0.602,4.286l0.217,0.672c0,0,5.116,15.06,26.367,15.06h9.479h77.894c1.931,0,3.491-1.553,3.491-3.486
	V268.791V147.472C481.559,145.545,479.998,143.983,478.067,143.983"/>
</svg>
