<svg xmlns="http://www.w3.org/2000/svg" viewBox="5 10 83 113">
  <rect x="5" y="10" width="83" height="113" rx="8" fill="#0f172a"/>
  <path fill="#C3181F" d="M68.896,17.493c-5.928-3.155-12.818-4.754-20.476-4.754c-7.556,0-14.42,1.602-20.405,4.761
    c-5.943,3.139-10.706,7.437-14.155,12.775c-3.434,5.313-5.103,11.173-5.103,17.912
    c0,6.344,1.531,11.918,4.68,17.039c3.149,5.129,7.453,9.287,12.793,12.359
    c4.71,2.709,9.975,4.235,15.652,4.533l8.26,0.434c0.472,0.025,0.729,0.563,0.451,0.946
    L25.328,118.39c-0.476,0.655-0.005,1.577,0.806,1.577H46.98c0.329,0,0.637-0.164,0.823-0.437
    l31.766-46.806c5.652-8.286,8.518-16.541,8.518-24.537c0-6.737-1.669-12.595-5.1-17.91
    C79.527,24.93,74.787,20.629,68.896,17.493 M50.028,68.79
    c-12.121,0.966-22.202-9.116-21.237-21.235c0.76-9.538,8.487-17.265,18.026-18.026
    c12.119-0.965,22.2,9.116,21.235,21.238C67.292,60.304,59.564,68.03,50.028,68.79"/>
</svg>
